HIERARCHY
ROOT Hips
{
	OFFSET 4.076200 -17.275196 43.303001
	CHANNELS 6 Xposition Yposition Zposition Zrotation Xrotation Yrotation
	JOINT Chest
	{
		OFFSET -0.689800 0.941999 5.341000
		CHANNELS 6 Xposition Yposition Zposition Zrotation Xrotation Yrotation
		JOINT Chest2
		{
			OFFSET 0.000000 0.000000 4.278900
			CHANNELS 6 Xposition Yposition Zposition Zrotation Xrotation Yrotation
			JOINT Neck
			{
				OFFSET 0.000000 0.000000 9.970299
				CHANNELS 6 Xposition Yposition Zposition Zrotation Xrotation Yrotation
				JOINT Head
				{
					OFFSET 0.000000 0.000002 2.173901
					CHANNELS 6 Xposition Yposition Zposition Zrotation Xrotation Yrotation
					End Site
					{
						OFFSET 0.000000 0.000000 6.488197
					}
				}
			}
			JOINT LeftCollar
			{
				OFFSET 2.472300 -0.285801 5.433899
				CHANNELS 6 Xposition Yposition Zposition Zrotation Xrotation Yrotation
				JOINT LeftShoulder
				{
					OFFSET 5.327700 0.000000 0.000000
					CHANNELS 6 Xposition Yposition Zposition Zrotation Xrotation Yrotation
					JOINT LeftElbow
					{
						OFFSET 0.000000 0.000000 -10.713001
						CHANNELS 6 Xposition Yposition Zposition Zrotation Xrotation Yrotation
						JOINT LeftWrist
						{
							OFFSET 0.000000 -0.000002 -13.396900
							CHANNELS 6 Xposition Yposition Zposition Zrotation Xrotation Yrotation
							End Site
							{
								OFFSET 0.000000 0.000000 -2.173901
							}
						}
					}
				}
			}
			JOINT RightCollar
			{
				OFFSET -2.589400 -1.358400 6.105000
				CHANNELS 6 Xposition Yposition Zposition Zrotation Xrotation Yrotation
				JOINT RightShoulder
				{
					OFFSET -4.580200 0.000000 0.000000
					CHANNELS 6 Xposition Yposition Zposition Zrotation Xrotation Yrotation
					JOINT RightElbow
					{
						OFFSET 0.000000 0.000000 -10.761101
						CHANNELS 6 Xposition Yposition Zposition Zrotation Xrotation Yrotation
						JOINT RightWrist
						{
							OFFSET 0.000000 -0.000002 -13.028500
							CHANNELS 6 Xposition Yposition Zposition Zrotation Xrotation Yrotation
							End Site
							{
								OFFSET 0.000000 0.000000 -2.173901
							}
						}
					}
				}
			}
		}
	}
	JOINT LeftHip
	{
		OFFSET 2.532500 0.486900 -2.489700
		CHANNELS 6 Xposition Yposition Zposition Zrotation Xrotation Yrotation
		JOINT LeftKnee
		{
			OFFSET 0.000000 -0.000002 -18.199398
			CHANNELS 6 Xposition Yposition Zposition Zrotation Xrotation Yrotation
			JOINT LeftAnkle
			{
				OFFSET 0.000000 -0.000002 -16.083900
				CHANNELS 6 Xposition Yposition Zposition Zrotation Xrotation Yrotation
				End Site
				{
					OFFSET 0.000000 -8.641399 0.000000
				}
			}
		}
	}
	JOINT RightHip
	{
		OFFSET -2.112700 -0.049900 -2.711102
		CHANNELS 6 Xposition Yposition Zposition Zrotation Xrotation Yrotation
		JOINT RightKnee
		{
			OFFSET 0.000000 -0.000002 -19.127298
			CHANNELS 6 Xposition Yposition Zposition Zrotation Xrotation Yrotation
			JOINT RightAnkle
			{
				OFFSET 0.000000 -0.000002 -14.874901
				CHANNELS 6 Xposition Yposition Zposition Zrotation Xrotation Yrotation
				End Site
				{
					OFFSET 0.000000 -8.198299 0.000000
				}
			}
		}
	}
}
MOTION
Frames: 9
Frame Time: 0.041667
22.256203 -65.450989 46.298599 -84.855729 -0.088937 1.040767 -0.689799 0.941996 5.340998 -10.006455 2.698247 0.207214 -0.000001 -0.000000 4.278913 4.180299 0.004096 0.029981 0.000006 -0.000002 9.970295 -1.331974 7.367886 0.566345 0.000004 0.000005 2.173895 -0.238746 0.203087 -1.186057 2.472299 -0.285803 5.433898 -10.846444 -2.163245 -9.282079 5.327703 -0.000006 -0.000002 -22.947134 -39.896873 -38.996033 0.000006 -0.000001 -10.713006 31.926107 -39.074669 75.238167 0.000000 -0.000007 -13.396902 -71.900643 5.458924 -97.735110 -2.589399 -1.358401 6.104996 15.025909 4.545604 7.436396 -4.580198 0.000002 -0.000003 38.678156 -33.277136 51.285445 0.000003 0.000009 -10.761100 -58.496964 -49.797444 -84.745955 0.000000 0.000002 -13.028504 -104.272352 2.398554 -144.625731 2.532494 0.486897 -2.489699 1.945588 -1.760177 0.476923 -0.000001 -0.000003 -18.199400 26.587025 21.951506 3.845830 -0.000002 -0.000000 -16.083899 -22.026669 62.268362 -4.565785 -2.112705 -0.049907 -2.711095 -32.104850 -31.682133 -13.818134 0.000003 -0.000002 -19.127302 705.363580 34.475172 -708.869544 -0.000003 -0.000003 -14.874900 43.708593 76.524449 -7.183838
22.080898 -65.467789 46.294601 -84.311725 -0.084594 0.989964 -0.689807 0.942000 5.340998 -10.550673 2.549874 0.350888 0.000005 -0.000003 4.278900 4.441649 0.066887 0.042448 -0.000011 -0.000001 9.970301 -1.684814 7.379205 0.621924 0.000004 0.000006 2.173892 -0.416183 0.151627 -0.854618 2.472294 -0.285803 5.433897 -11.080930 -2.072237 -9.544436 5.327695 -0.000004 -0.000003 -22.727683 -40.173954 -38.846523 0.000007 0.000001 -10.713009 31.864694 -39.153342 75.241384 0.000002 -0.000011 -13.396907 -71.749286 5.607505 -97.847733 -2.589403 -1.358402 6.105006 14.782877 4.449871 7.426719 -4.580201 0.000006 0.000001 38.605681 -33.583265 51.254614 0.000003 -0.000002 -10.761104 -58.363461 -49.659959 -84.770468 0.000000 -0.000001 -13.028499 -104.249970 2.420630 -144.876481 2.532494 0.486901 -2.489706 1.283168 -1.265372 0.423242 0.000002 -0.000001 -18.199400 27.964365 21.356719 3.920342 0.000005 -0.000003 -16.083902 -23.759047 63.113912 -4.040383 -2.112705 -0.049904 -2.711098 -31.267168 -31.022422 -12.865897 -0.000005 -0.000001 -19.127308 705.290033 32.499382 -711.200387 -0.000007 -0.000001 -14.874892 45.343601 76.792671 -10.061103
21.898197 -65.486694 46.284504 -83.819446 -0.065576 0.772854 -0.689801 0.941997 5.340995 -11.027626 2.189651 0.725486 -0.000005 -0.000001 4.278903 4.771685 0.179047 0.062824 -0.000005 0.000000 9.970298 -1.969688 7.529134 0.532652 -0.000007 -0.000002 2.173891 -0.359187 0.133795 -0.969078 2.472292 -0.285799 5.433906 -11.434523 -1.855795 -9.882988 5.327703 -0.000005 -0.000002 -22.309964 -40.559774 -38.566332 0.000007 -0.000000 -10.713003 31.569203 -39.217109 75.145796 0.000004 -0.000005 -13.396904 -71.479719 5.709612 -98.011855 -2.589403 -1.358398 6.105005 14.522869 4.422486 7.233186 -4.580208 -0.000001 0.000003 38.663860 -33.528921 51.279421 0.000001 -0.000001 -10.761099 -58.466214 -49.852714 -84.709864 0.000002 -0.000001 -13.028495 -104.515493 2.455603 -144.916438 2.532495 0.486899 -2.489697 0.866389 -0.857295 0.504865 0.000001 0.000001 -18.199400 28.175422 21.019229 4.142573 -0.000001 -0.000002 -16.083904 -24.743614 63.526743 -3.372135 -2.112702 -0.049902 -2.711103 -30.257229 -30.429818 -11.836248 0.000002 0.000002 -19.127300 704.512102 30.507026 -712.992301 -0.000002 0.000003 -14.874896 46.755555 77.353689 -11.499598
21.709200 -65.510391 46.272598 -83.374453 -0.043277 0.511514 -0.689796 0.942001 5.340990 -11.554465 1.905444 1.121923 0.000002 -0.000001 4.278901 5.123887 0.303018 0.085177 0.000004 -0.000003 9.970299 -2.164265 7.582430 0.452653 0.000001 -0.000000 2.173898 -0.329065 0.134136 -1.064045 2.472305 -0.285807 5.433898 -11.567048 -1.753048 -10.318888 5.327697 -0.000004 -0.000005 -21.720883 -41.131505 -37.975107 0.000007 0.000001 -10.713000 30.922421 -39.510134 74.945828 -0.000002 -0.000008 -13.396892 -71.219919 5.427214 -97.817031 -2.589401 -1.358405 6.104996 14.311048 4.294489 7.166794 -4.580203 -0.000007 0.000006 38.365415 -33.968638 51.000032 0.000003 0.000001 -10.761101 -58.009329 -49.782425 -84.573103 0.000003 -0.000003 -13.028498 -104.536271 2.458855 -144.993865 2.532498 0.486902 -2.489704 0.448177 -0.501949 0.613121 0.000004 -0.000002 -18.199394 28.530791 20.820052 4.325848 -0.000005 0.000004 -16.083897 -25.808426 63.819081 -2.534419 -2.112699 -0.049900 -2.711115 -29.140821 -29.822884 -10.775691 0.000000 -0.000002 -19.127306 703.820504 28.731683 -714.656189 0.000004 0.000000 -14.874898 48.233092 77.677125 -13.581304
21.514101 -65.540894 46.255604 -83.048741 0.594822 0.254990 -0.689806 0.941990 5.340999 -12.028697 0.972120 1.360690 0.000002 -0.000002 4.278909 5.494394 0.412413 0.108809 0.000003 -0.000000 9.970302 -2.302827 7.694277 0.380879 -0.000002 0.000005 2.173895 -0.329329 0.125865 -1.154893 2.472297 -0.285802 5.433897 -11.642433 -1.597019 -10.632482 5.327704 -0.000001 -0.000002 -21.291665 -41.576406 -37.555204 0.000003 -0.000001 -10.713005 30.393720 -39.591748 74.726675 0.000009 -0.000002 -13.396895 -71.321710 5.069259 -97.544404 -2.589398 -1.358399 6.105003 14.122442 4.259290 7.116130 -4.580197 0.000003 0.000000 38.400450 -34.094914 50.880477 0.000006 -0.000005 -10.761100 -57.885286 -49.715752 -84.360882 -0.000001 0.000002 -13.028498 -104.550430 2.453511 -145.065882 2.532494 0.486896 -2.489704 0.222707 -0.810595 0.686487 0.000008 -0.000002 -18.199402 28.609852 20.760141 4.522910 -0.000001 0.000002 -16.083902 -26.784375 64.045407 -1.777625 -2.112706 -0.049907 -2.711106 -28.063600 -29.719154 -10.095673 -0.000000 0.000005 -19.127304 703.099017 27.126148 -716.090365 0.000002 0.000001 -14.874899 49.404797 77.874593 -15.253156
21.307402 -65.572189 46.235901 -82.652324 0.665826 0.053692 -0.689794 0.941997 5.341001 -12.435811 0.652110 1.619512 0.000004 -0.000002 4.278897 5.737032 0.497209 0.124214 0.000004 0.000001 9.970300 -2.530147 7.747824 0.403301 -0.000004 0.000006 2.173888 -0.276559 0.133853 -1.288466 2.472313 -0.285804 5.433906 -11.687371 -1.469063 -10.889623 5.327713 -0.000000 -0.000001 -20.668590 -42.147745 -37.035109 0.000014 -0.000005 -10.713011 29.619501 -39.775634 74.579239 0.000001 -0.000007 -13.396900 -71.179164 4.765372 -97.386408 -2.589396 -1.358401 6.105003 13.887690 4.133134 7.121112 -4.580200 0.000002 -0.000004 38.229614 -34.503633 50.512609 0.000001 0.000000 -10.761103 -57.154091 -49.634411 -83.923388 0.000001 0.000001 -13.028499 -104.586855 2.426601 -145.041744 2.532502 0.486897 -2.489703 -0.154509 -0.602088 0.789436 0.000005 -0.000002 -18.199398 28.571486 20.739495 4.621991 -0.000008 0.000002 -16.083900 -27.710424 64.129063 -0.368912 -2.112699 -0.049906 -2.711105 -27.303140 -29.169211 -9.418795 -0.000001 0.000001 -19.127300 702.006788 25.900038 -717.038068 -0.000006 -0.000001 -14.874899 50.363995 77.998322 -16.574711
21.095898 -65.611801 46.222401 -82.365709 0.869391 -0.402055 -0.689801 0.941997 5.340989 -12.652483 0.114864 2.127949 -0.000001 -0.000003 4.278905 5.858856 0.576336 0.137379 0.000005 -0.000003 9.970296 -2.478806 7.939769 0.244569 0.000003 0.000002 2.173898 -0.343339 0.176997 -1.276756 2.472296 -0.285804 5.433897 -11.722191 -1.298628 -11.098064 5.327696 0.000001 -0.000007 -20.175414 -42.615664 -36.669899 0.000004 0.000002 -10.713003 29.009804 -39.727495 74.450974 0.000006 -0.000009 -13.396892 -71.231237 4.585131 -97.313257 -2.589399 -1.358403 6.104995 13.814391 4.079546 7.050464 -4.580197 -0.000003 0.000001 38.010795 -34.519704 50.243380 0.000005 -0.000005 -10.761094 -57.063758 -49.656203 -83.880515 0.000003 -0.000005 -13.028502 -104.506976 2.479643 -145.156519 2.532503 0.486901 -2.489702 -0.436093 -0.565519 1.090675 0.000006 -0.000002 -18.199402 28.626685 20.796992 4.750828 -0.000002 0.000000 -16.083904 -28.721779 64.121987 1.309704 -2.112699 -0.049902 -2.711108 -26.237892 -28.846689 -8.534486 0.000002 0.000001 -19.127296 700.892265 24.835155 -717.870039 -0.000001 -0.000005 -14.874901 50.387385 78.042336 -17.077742
20.877705 -65.656097 46.204498 -82.169580 0.648015 -0.579281 -0.689797 0.942001 5.340994 -12.899424 0.197025 2.336195 -0.000002 -0.000002 4.278898 5.893327 0.600702 0.141461 0.000002 -0.000006 9.970299 -2.490983 8.031037 0.335739 0.000003 0.000003 2.173901 -0.320738 0.225961 -1.356547 2.472305 -0.285806 5.433902 -11.558298 -1.237804 -11.079847 5.327707 -0.000001 -0.000001 -19.922077 -42.886102 -36.506343 0.000011 -0.000001 -10.713000 28.663937 -39.562132 74.413688 0.000004 -0.000011 -13.396893 -71.418971 4.455095 -97.216965 -2.589394 -1.358404 6.104996 13.919365 4.061473 7.010935 -4.580198 0.000003 0.000009 37.921623 -34.737441 50.194060 -0.000002 -0.000003 -10.761102 -56.726367 -49.042316 -83.695601 0.000000 0.000004 -13.028502 -103.879159 2.500764 -145.447881 2.532510 0.486900 -2.489707 -0.589452 -0.174105 1.104663 0.000003 0.000001 -18.199402 28.638736 21.028151 4.791594 0.000000 -0.000000 -16.083904 -29.766306 64.091394 2.917079 -2.112696 -0.049900 -2.711110 -25.291842 -28.021888 -7.805379 -0.000001 -0.000003 -19.127296 700.173675 24.041298 -718.646058 -0.000004 -0.000001 -14.874896 49.344927 77.766820 -16.848251
20.649004 -65.701889 46.185699 -81.959750 0.074598 -0.900992 -0.689794 0.941997 5.340999 -13.037885 0.522356 2.792144 -0.000000 -0.000000 4.278900 5.843516 0.604757 0.141555 -0.000010 0.000003 9.970291 -2.537565 8.186848 0.449065 -0.000001 0.000008 2.173892 -0.161639 0.205744 -1.479916 2.472291 -0.285801 5.433896 -11.576680 -1.076531 -10.968311 5.327694 -0.000004 0.000001 -20.112694 -42.765276 -36.827342 0.000010 0.000006 -10.712999 28.933784 -39.103021 74.519010 -0.000003 0.000003 -13.396896 -71.751615 4.651287 -97.391401 -2.589402 -1.358399 6.104993 14.014528 4.108962 6.785819 -4.580203 0.000003 0.000004 38.108101 -34.549289 50.367891 0.000003 -0.000005 -10.761101 -56.576141 -49.002485 -83.411254 -0.000001 0.000003 -13.028498 -104.031882 2.411302 -145.130305 2.532507 0.486897 -2.489703 -0.885414 0.548497 1.288268 -0.000005 -0.000000 -18.199398 28.279994 21.324423 4.893397 -0.000007 0.000000 -16.083906 -30.288791 64.039034 4.265724 -2.112688 -0.049905 -2.711102 -24.378846 -26.884402 -6.904784 -0.000000 -0.000002 -19.127304 699.614856 23.286249 -719.287659 -0.000002 -0.000005 -14.874900 47.952914 77.540911 -16.430022
